<?xml version="1.0" standalone="no"?>
<!DOCTYPE svg PUBLIC "-//W3C//DTD SVG 20010904//EN"
 "http://www.w3.org/TR/2001/REC-SVG-20010904/DTD/svg10.dtd">
<svg version="1.0" xmlns="http://www.w3.org/2000/svg"
 width="928.000000pt" height="196.000000pt" viewBox="0 0 928.000000 196.000000"
 preserveAspectRatio="xMidYMid meet">
<metadata>
Created by potrace 1.16, written by Peter Selinger 2001-2019
</metadata>
<g transform="translate(0.000000,196.000000) scale(0.100000,-0.100000)"
fill="#000000" stroke="none">
<path d="M4468 1842 c-43 -26 -78 -49 -78 -52 0 -3 4 -11 9 -19 7 -11 15 -10
44 8 67 41 67 41 67 -153 0 -191 0 -189 -62 -201 -22 -4 -38 -13 -38 -21 0
-11 26 -14 135 -14 104 0 135 3 135 13 0 7 -20 18 -45 25 -56 15 -58 21 -53
270 4 226 10 218 -114 144z"/>
<path d="M213 1457 c-46 -23 -83 -47 -83 -54 0 -19 14 -16 115 17 l91 30 89
-30 c99 -33 115 -36 115 -17 0 20 -165 97 -208 96 -23 0 -69 -16 -119 -42z"/>
<path d="M8980 1437 c-41 -11 -45 -15 -48 -44 -3 -27 0 -33 16 -33 11 0 27 11
36 25 23 35 82 36 97 1 18 -38 4 -69 -65 -145 -56 -60 -96 -117 -96 -136 0 -3
51 -5 114 -5 l114 0 6 31 c3 17 6 35 6 40 0 15 -38 10 -44 -6 -4 -11 -21 -15
-61 -15 -30 0 -55 4 -55 8 0 4 27 34 61 67 67 66 89 101 89 140 0 39 -16 62
-51 74 -39 13 -60 13 -119 -2z"/>
<path d="M5575 1371 c-194 -87 -234 -443 -68 -603 47 -46 108 -74 116 -54 4 9
-12 25 -42 44 -37 22 -55 43 -75 85 -52 106 -51 304 1 407 25 49 43 66 109
106 13 8 16 15 9 22 -7 8 -22 6 -50 -7z"/>
<path d="M8606 1375 c-3 -10 7 -20 31 -31 79 -38 126 -150 126 -299 0 -149
-47 -261 -126 -299 -24 -11 -34 -21 -31 -31 5 -13 10 -13 41 0 87 36 148 119
172 233 39 186 -35 369 -172 427 -31 13 -36 13 -41 0z"/>
<path d="M324 1335 c-41 -18 -88 -73 -108 -126 -20 -53 -125 -521 -119 -531 2
-5 26 -8 53 -8 43 0 50 3 55 23 3 12 11 49 19 82 9 42 18 59 27 57 8 -2 42 -4
76 -4 83 1 135 29 164 90 30 62 22 117 -24 156 l-34 29 41 22 c51 27 86 77 86
122 0 45 -14 69 -50 88 -36 19 -143 19 -186 0z m114 -37 c36 -36 -6 -129 -71
-161 -44 -22 -47 -46 -8 -68 34 -20 44 -61 30 -115 -14 -50 -46 -84 -79 -84
-32 0 -50 17 -50 48 0 37 60 293 76 324 30 58 75 83 102 56z"/>
<path d="M8074 1335 c-41 -18 -88 -73 -108 -126 -20 -53 -125 -521 -119 -531
2 -5 26 -8 53 -8 43 0 50 3 55 23 3 12 11 49 19 82 9 42 18 59 27 57 8 -2 42
-4 76 -4 83 1 135 29 164 90 30 62 22 117 -24 156 l-34 29 41 22 c51 27 86 77
86 122 0 45 -14 69 -50 88 -36 19 -143 19 -186 0z m114 -37 c36 -36 -6 -129
-71 -161 -44 -22 -47 -46 -8 -68 34 -20 44 -61 30 -115 -14 -50 -46 -84 -79
-84 -32 0 -50 17 -50 48 0 37 60 293 76 324 30 58 75 83 102 56z"/>
<path d="M4900 1315 c0 -8 6 -15 14 -15 23 0 26 -24 26 -230 0 -189 -1 -200
-20 -210 -46 -25 -15 -30 175 -30 l195 0 0 70 c0 62 -2 70 -19 70 -12 0 -21
-9 -25 -26 -12 -48 -49 -74 -106 -74 l-50 0 0 100 c0 99 0 100 24 100 37 0 57
-11 67 -36 4 -13 15 -24 24 -24 12 0 15 15 15 80 0 65 -3 80 -15 80 -9 0 -20
-11 -24 -24 -10 -25 -30 -36 -67 -36 -24 0 -24 1 -24 90 l0 90 44 0 c63 0 92
-14 104 -49 8 -21 18 -31 31 -31 19 0 21 6 21 60 l0 60 -195 0 c-167 0 -195
-2 -195 -15z m140 -235 l0 -210 -25 0 -25 0 0 210 0 210 25 0 25 0 0 -210z"/>
<path d="M7275 1169 c-19 -17 -35 -37 -35 -44 0 -21 36 -24 49 -4 18 30 29 22
46 -33 22 -74 20 -85 -25 -138 -37 -44 -44 -48 -74 -43 -32 5 -34 4 -40 -32
-9 -44 -6 -48 36 -48 26 0 41 10 84 57 l51 56 7 -38 c6 -38 25 -63 58 -75 44
-16 138 43 125 77 -8 20 -33 21 -41 1 -3 -8 -12 -15 -20 -15 -16 0 -32 41 -42
106 -6 38 -3 45 30 82 29 32 43 40 68 38 29 -1 32 2 39 34 9 44 5 50 -33 50
-25 0 -42 -11 -79 -51 l-47 -50 -6 35 c-13 71 -90 88 -151 35z"/>
<path d="M1927 1180 c-65 -17 -99 -39 -95 -63 5 -35 43 -34 74 2 48 57 114 28
114 -49 0 -35 -3 -40 -23 -40 -43 0 -129 -31 -153 -55 -47 -48 -22 -142 39
-147 51 -3 84 5 115 28 l32 25 0 -25 c0 -24 3 -26 50 -26 54 0 61 9 30 40 -18
18 -20 33 -20 139 0 110 -2 122 -23 146 -25 30 -79 40 -140 25z"/>
<path d="M2366 1180 c-16 -5 -39 -19 -52 -31 l-24 -22 0 26 c0 26 -2 27 -55
27 -40 0 -55 -4 -55 -14 0 -7 9 -16 20 -19 19 -5 20 -14 20 -136 0 -119 -2
-133 -20 -148 -11 -10 -20 -21 -20 -25 0 -5 34 -8 75 -8 78 0 96 12 55 38 -18
11 -20 23 -20 111 0 84 3 102 21 125 23 29 60 34 79 11 7 -8 23 -15 37 -15 22
0 24 3 21 43 -3 37 -6 42 -28 44 -14 1 -38 -2 -54 -7z"/>
<path d="M2582 1180 c-18 -4 -44 -18 -58 -30 -41 -40 -44 -126 -5 -166 17 -18
17 -20 -5 -47 -28 -33 -31 -69 -9 -87 14 -12 13 -16 -10 -40 -46 -48 -25 -111
43 -130 52 -14 147 -12 186 4 61 25 92 93 70 151 -12 29 -60 45 -138 45 -87 0
-106 5 -106 30 0 26 17 34 75 35 108 3 160 68 132 168 -7 25 -5 27 23 27 23 0
30 4 30 20 0 18 -7 20 -69 20 -38 0 -81 2 -97 4 -16 3 -44 1 -62 -4z m92 -52
c9 -12 16 -41 16 -63 0 -52 -23 -85 -59 -85 -64 0 -95 105 -45 154 23 24 70
20 88 -6z m50 -329 c33 -48 -37 -107 -113 -94 -52 9 -73 26 -73 58 0 47 17 57
98 57 63 0 75 -3 88 -21z"/>
<path d="M3180 1179 c-14 -6 -35 -20 -47 -31 l-23 -21 0 26 c0 26 -2 27 -55
27 -40 0 -55 -4 -55 -14 0 -7 9 -16 20 -19 19 -5 20 -14 20 -136 0 -119 -2
-133 -20 -148 -11 -10 -20 -21 -20 -25 0 -5 34 -8 75 -8 60 0 75 3 75 15 0 8
-6 15 -14 15 -21 0 -26 23 -26 125 0 83 3 97 23 119 32 36 68 42 92 16 16 -18
20 -40 23 -125 4 -94 2 -105 -17 -124 -34 -34 -26 -41 54 -41 75 0 93 10 55
30 -18 10 -20 21 -20 119 l0 109 31 26 c37 31 53 32 79 6 18 -18 20 -33 20
-135 0 -104 -2 -115 -20 -125 -38 -20 -20 -30 55 -30 78 0 96 12 56 37 -17 11
-20 27 -23 142 -3 119 -5 133 -25 152 -33 33 -101 31 -147 -5 l-36 -27 -23 25
c-25 30 -71 40 -107 25z"/>
<path d="M4000 1179 c-14 -6 -35 -20 -47 -31 l-23 -21 0 26 c0 26 -2 27 -55
27 -40 0 -55 -4 -55 -14 0 -7 9 -16 20 -19 19 -5 20 -14 20 -136 0 -119 -2
-133 -20 -148 -11 -10 -20 -21 -20 -25 0 -5 34 -8 75 -8 60 0 75 3 75 15 0 8
-6 15 -14 15 -21 0 -26 23 -26 124 0 100 11 129 57 147 62 23 83 -15 83 -152
0 -87 -2 -101 -20 -116 -11 -10 -20 -21 -20 -25 0 -5 34 -8 75 -8 60 0 75 3
75 15 0 8 -6 15 -14 15 -21 0 -26 23 -26 134 0 127 -11 163 -56 182 -38 16
-50 16 -84 3z"/>
<path d="M5715 1176 c-43 -19 -72 -53 -57 -68 9 -9 17 -6 35 10 53 50 57 25
21 -141 -17 -79 -17 -90 -4 -114 29 -52 92 -49 151 7 l39 37 0 -28 c0 -39 37
-63 75 -49 36 14 85 49 85 61 0 21 -32 20 -56 -2 -19 -17 -27 -20 -36 -11 -11
11 -2 60 49 280 5 19 1 22 -29 22 l-35 0 -22 -99 c-23 -104 -55 -164 -106
-197 -20 -13 -28 -14 -40 -4 -20 16 -19 50 5 140 26 100 26 135 -2 154 -27 19
-34 19 -73 2z"/>
<path d="M3620 1166 c0 -7 9 -16 20 -19 19 -5 20 -14 20 -136 0 -119 -2 -133
-20 -148 -11 -10 -20 -21 -20 -25 0 -5 34 -8 75 -8 60 0 75 3 75 15 0 8 -6 15
-14 15 -22 0 -26 24 -26 176 l0 144 -55 0 c-40 0 -55 -4 -55 -14z"/>
<path d="M1080 1120 l0 -30 225 0 225 0 0 30 0 30 -225 0 -225 0 0 -30z"/>
<path d="M4330 1055 l0 -25 205 0 205 0 0 25 0 25 -205 0 -205 0 0 -25z"/>
<path d="M6520 1045 l0 -25 225 0 225 0 0 25 0 25 -225 0 -225 0 0 -25z"/>
<path d="M1080 970 l0 -30 225 0 225 0 0 30 0 30 -225 0 -225 0 0 -30z"/>
<path d="M635 940 c-3 -6 1 -13 9 -16 20 -8 20 -27 -1 -129 -14 -69 -15 -86
-4 -99 19 -23 71 -19 104 8 24 19 26 25 14 34 -11 10 -17 9 -27 -3 -18 -21
-40 -19 -40 5 0 10 9 58 20 105 11 47 20 90 20 95 0 13 -87 13 -95 0z"/>
<path d="M6105 940 c-3 -6 1 -13 9 -16 20 -8 20 -27 -1 -129 -14 -69 -15 -86
-4 -99 19 -23 71 -19 104 8 24 19 26 25 14 34 -11 10 -17 9 -27 -3 -18 -21
-40 -19 -40 5 0 10 9 58 20 105 11 47 20 90 20 95 0 13 -87 13 -95 0z"/>
<path d="M8385 940 c-3 -6 1 -13 9 -16 20 -8 20 -27 -1 -129 -14 -69 -15 -86
-4 -99 19 -23 71 -19 104 8 24 19 26 25 14 34 -11 10 -17 9 -27 -3 -18 -21
-40 -19 -40 5 0 10 9 58 20 105 11 47 20 90 20 95 0 13 -87 13 -95 0z"/>
<path d="M7655 910 c-3 -6 1 -13 9 -16 20 -8 20 -27 -1 -129 -14 -69 -15 -86
-4 -99 19 -23 71 -19 104 8 24 19 26 25 14 34 -11 10 -17 9 -27 -3 -18 -21
-40 -19 -40 5 0 10 9 58 20 105 11 47 20 90 20 95 0 13 -87 13 -95 0z"/>
<path d="M4422 820 c-40 -18 -43 -22 -40 -52 2 -28 8 -34 31 -36 18 -2 27 1
27 11 0 26 45 57 82 57 28 0 42 -7 57 -26 41 -53 21 -111 -78 -228 -73 -86
-131 -172 -131 -193 0 -10 34 -13 155 -13 l155 0 0 55 c0 48 -2 55 -20 55 -11
0 -20 -7 -20 -15 0 -9 -12 -20 -26 -25 -31 -12 -154 -13 -154 -2 0 5 27 40 60
78 33 38 78 91 100 117 68 82 75 164 18 212 -26 22 -39 25 -101 25 -50 0 -85
-7 -115 -20z"/>
<path d="M2873 589 c-45 -29 -67 -82 -107 -264 -20 -88 -38 -170 -41 -183 -5
-22 -3 -23 37 -20 42 3 42 3 53 53 l10 50 66 5 c81 6 115 27 129 79 12 46 2
82 -30 104 l-22 15 30 16 c42 22 62 53 62 98 0 50 -27 68 -100 68 -38 0 -65
-7 -87 -21z m105 -47 c3 -32 -10 -50 -73 -101 -17 -13 -16 -16 9 -33 20 -15
26 -28 26 -57 0 -66 -58 -115 -89 -77 -9 11 -6 40 13 126 28 121 29 124 60
158 28 31 50 24 54 -16z"/>
</g>
</svg>
